<svg data-v-0dd9719b="" version="1.0" xmlns="http://www.w3.org/2000/svg" xmlns:xlink="http://www.w3.org/1999/xlink" width="100%" height="100%" viewBox="0 0 340.000000 250.000000" preserveAspectRatio="xMidYMid meet" color-interpolation-filters="sRGB" style="margin: auto;"> <rect data-v-0dd9719b="" x="0" y="0" width="100%" height="100%" fill="#ffffff" fill-opacity="1" class="background"></rect> <rect data-v-0dd9719b="" x="0" y="0" width="100%" height="100%" fill="url(#watermark)" fill-opacity="1" class="watermarklayer"></rect> <g data-v-0dd9719b="" fill="#2b2b2b" class="icon-text-wrapper icon-svg-group iconsvg" transform="translate(54.220001220703125,92.26784896850586)"><g class="iconsvg-imagesvg" transform="translate(0,0)"><g><rect fill="#2b2b2b" fill-opacity="0" stroke-width="2" x="0" y="0" width="59.99999999999963" height="65.46430558737808" class="image-rect"></rect> <svg x="0" y="0" width="59.99999999999963" height="65.46430558737808" filtersec="colorsb4236774997" class="image-svg-svg primary" style="overflow: visible;"><svg xmlns="http://www.w3.org/2000/svg" viewBox="0 0.00037716084625571966 252.15200805664062 275.1169128417969"><g><g><path d="M55.31 105c61.62 14.49 123.56 4.79 139.05 40a229.17 229.17 0 0 1 52.9 14.48 51.7 51.7 0 0 0-21-66.75L77.53 6.91A51.66 51.66 0 0 0 46.75.24C13.07 19.73 29.94 56.83 55.31 105z" fill="#f74dd2"></path><path d="M55.31 105C29.94 56.83 13.07 19.73 46.75.24A51.72 51.72 0 0 0 0 51.71v21.93C11.08 90.43 31.64 99.47 55.31 105zM194.36 145c10.49 23.82-11 53.19-30.49 73.38l62.47-36.1a51.68 51.68 0 0 0 20.92-22.8 229.17 229.17 0 0 0-52.9-14.48z" fill="#ffde49"></path><path d="M194.36 145c-40.78-6.07-79.75-.78-113.69 9 17 34.93 37.81 79.58 1 111.82l82.18-47.49c19.53-20.15 41-49.52 30.51-73.33z" fill="#2b2b2b"></path><path d="M80.67 154A371.3 371.3 0 0 0 0 188.64v34.81a51.77 51.77 0 0 0 77.64 44.74l4-2.33c35.98-31.49 17.13-74.58-.97-111.86z" fill="#4fd9fe"></path><path d="M55.31 105C31.64 99.47 11.08 90.43 0 73.64v115A371.3 371.3 0 0 1 80.67 154c-8.42-17.28-17.32-33.68-25.36-49z" fill="#2b2b2b"></path></g></g></svg></svg> <!----></g></g> <g transform="translate(67,5.9409027099609375)"><g data-gra="path-name" fill-rule="" class="tp-name iconsvg-namesvg" transform="translate(0,0)"><g transform="scale(1)"><g><path d="M36.3-29.07Q36.3-28.82 36.1-28.62 35.91-28.43 35.66-28.43L35.66-28.43 5.95-28.43 5.95-31.2 36.3-31.2 36.3-29.07ZM2.81-19.85L39.57-19.85 39.57-17.72Q39.57-17.47 39.38-17.28 39.19-17.09 38.93-17.09L38.93-17.09 21.08-17.09Q18.49-11.86 15.58-8.27 12.67-4.68 10.2-2.47L10.2-2.47 28.09-3.57Q28.52-3.61 29.5-3.78L29.5-3.78Q26.39-7.65 24.31-12.71L24.31-12.71 29.41-12.71Q31.15-8.54 33.53-4.99 35.91-1.45 38.68 0.77L38.68 0.77 38.68 3.53Q34.72 1.83 31.54-1.49L31.54-1.49 30.73-1.19Q29.84-0.85 29.16-0.81L29.16-0.81 4.33 1.53 4.33-2.08 6.16-2.21Q7.27-3.06 9.05-5.46 10.84-7.86 12.56-10.99 14.28-14.11 15.26-17.09L15.26-17.09 2.81-17.09 2.81-19.85ZM65.79-30.18L83.26-30.18 83.26-28.05Q83.26-27.8 83.07-27.6 82.88-27.41 82.62-27.41L82.62-27.41 65.79-27.41 65.79-23.76 80.54-23.76 80.54-0.64Q80.54 3.83 76.08 3.83L76.08 3.83 69.36 3.83 69.36 1.06 74.38 1.06Q75.86 1.06 75.86-0.43L75.86-0.43 75.86-21 51.64-21 51.64 3.27Q51.64 3.53 51.45 3.72 51.26 3.91 51 3.91L51 3.91 46.96 3.91 46.96-23.76 61.12-23.76 61.12-27.41 44.45-27.41 44.45-30.18 61.12-30.18 61.12-34.21 65.79-34.21 65.79-30.18ZM74.29-4.59L66.05-4.59 66.05 2.21Q66.05 2.47 65.85 2.66 65.66 2.85 65.41 2.85L65.41 2.85 61.37 2.85 61.37-4.59 52.49-4.59 52.49-7.35 61.37-7.35 61.37-11.43 52.78-11.43 52.78-14.2 58.44-14.2Q56.19-17.04 53.72-19.98L53.72-19.98 58.82-19.98Q60.48-17.6 62.3-14.2L62.3-14.2 65.62-14.2Q67.87-17.51 68.68-20.02L68.68-20.02 73.78-20.02Q72.08-17.17 69.49-14.2L69.49-14.2 74.67-14.2 74.67-12.07Q74.67-11.82 74.48-11.62 74.29-11.43 74.03-11.43L74.03-11.43 66.05-11.43 66.05-7.35 74.93-7.35 74.93-5.23Q74.93-4.97 74.74-4.78 74.55-4.59 74.29-4.59L74.29-4.59ZM103.91-29.79L103.91-1.4Q103.91 3.06 99.45 3.06L99.45 3.06 94.05 3.06 94.05 0.3 98.17 0.3Q99.66 0.3 99.66-1.19L99.66-1.19 99.66-4.8 96.6-4.8Q96.05-6.25 95.48-7.44 94.9-8.63 93.46-10.24L93.46-10.24Q92.99-4.59 91.48-0.98 89.97 2.64 86.95 4.25L86.95 4.25 86.95 1.49Q89.12-2.08 89.46-13.47L89.46-13.47 86.95-13.47 86.95-16.23 89.5-16.23Q89.55-17.38 89.55-19.72L89.55-19.72 89.55-29.79 93.88-29.79Q94.99-31.62 95.11-34.21L95.11-34.21 100.22-34.21Q99.36-31.71 97.79-29.79L97.79-29.79 103.91-29.79ZM125.25-25.54Q125.25-25.29 125.06-25.1 124.87-24.91 124.61-24.91L124.61-24.91 104.47-24.91 104.47-27.67 113.43-27.67Q111.9-30.01 108.76-33.49L108.76-33.49 113.86-33.49Q114.79-32.3 115.3-31.3 115.81-30.3 116.58-28.56L116.58-28.56 116.96-27.67 125.25-27.67 125.25-25.54ZM99.66-18.83L99.66-27.03 93.8-27.03 93.8-24.52 96.94-24.52Q97.96-23.25 98.49-21.99 99.03-20.74 99.66-18.83L99.66-18.83ZM93.8-19.3Q93.8-17.21 93.75-16.23L93.75-16.23 99.66-16.23 99.66-18.19 96.69-18.19Q96.64-18.32 96.35-19.15 96.05-19.98 95.39-21.1 94.73-22.23 93.8-23.33L93.8-23.33 93.8-19.3ZM123.21-7.82L125.97-7.82 125.55 0.38Q125.46 2.13 124.57 2.93 123.68 3.74 121.76 3.66L121.76 3.66 119.72 3.66Q115.77 3.66 115.77-0.3L115.77-0.3 115.77-17.98 111.48-17.98 111.48-13.64Q111.48-8.37 110.67-4.89 109.86-1.4 108.06 0.83 106.25 3.06 103.15 4.42L103.15 4.42 103.15 1.66Q105.06-0.51 105.93-4.36 106.8-8.2 106.8-14.03L106.8-14.03 106.8-20.74 120.44-20.74 120.44-0.47Q120.44 0.6 120.55 0.91 120.66 1.23 121.21 1.23L121.21 1.23Q121.85 1.23 121.97 0.96 122.1 0.68 122.15-0.26L122.15-0.26 122.57-7.18Q122.57-7.44 122.76-7.63 122.95-7.82 123.21-7.82L123.21-7.82ZM96.86-11.14Q97.88-9.82 98.39-8.61 98.9-7.4 99.66-5.19L99.66-5.19 99.66-13.47 93.67-13.47Q93.67-12.92 93.63-12.22 93.59-11.52 93.54-11.14L93.54-11.14 96.86-11.14ZM155.93-13.6L167.37-13.6 166.94-1.23Q166.86 1.02 165.77 2.13 164.69 3.23 162.48 3.23L162.48 3.23 154.87 3.23 154.87 0.47 160.99 0.47Q162.39 0.47 162.48-1.02L162.48-1.02 162.86-10.84 151.68-10.84 151.68-30.18 155.38-30.18Q155.76-30.94 156-31.81 156.23-32.68 156.53-34.21L156.53-34.21 161.2-34.21Q160.52-32 159.38-30.18L159.38-30.18 166.39-30.18 165.96-20.49Q165.88-18.23 164.79-17.13 163.71-16.02 161.5-16.02L161.5-16.02 157.46-16.02 157.46-18.79 160.01-18.79Q161.41-18.79 161.5-20.27L161.5-20.27 161.5-20.49 158.61-20.49Q157.93-21.72 155.93-23.97L155.93-23.97 155.93-13.6ZM140.38-32.43L140.38-1.19Q140.38 3.27 135.91 3.27L135.91 3.27 134.09 3.27 134.09 0.51 135.06 0.51Q136.55 0.51 136.55-0.98L136.55-0.98 136.55-8.76 134.51-8.76Q134.34-4.46 133.79-1.85 133.24 0.77 132.22 2.23 131.2 3.7 129.46 4.38L129.46 4.38 129.46 1.62Q130.18-0.21 130.47-3.08 130.77-5.95 130.77-11.77L130.77-11.77 130.77-32.43 140.38-32.43ZM150.88-32.43L150.88-1.19Q150.88 3.27 146.41 3.27L146.41 3.27 144.59 3.27 144.59 0.51 145.56 0.51Q147.05 0.51 147.05-0.98L147.05-0.98 147.05-8.76 145.01-8.76Q144.84-4.46 144.29-1.85 143.74 0.77 142.72 2.23 141.69 3.7 139.95 4.38L139.95 4.38 139.95 1.62Q140.68-0.21 140.97-3.08 141.27-5.95 141.27-11.77L141.27-11.77 141.27-32.43 150.88-32.43ZM136.55-29.67L134.6-29.67 134.6-21.63 136.55-21.63 136.55-29.67ZM147.05-29.67L145.09-29.67 145.09-21.63 147.05-21.63 147.05-29.67ZM161.54-21L161.8-27.41 155.93-27.41 155.93-25.76 158.65-25.76Q159.84-24.23 160.78-22.4L160.78-22.4 161.54-21ZM134.6-11.52L136.55-11.52 136.55-18.87 134.6-18.87 134.6-14.32 134.6-11.52ZM145.09-11.52L147.05-11.52 147.05-18.87 145.09-18.87 145.09-14.32 145.09-11.52ZM161.71-4.76Q161.71-4.5 161.52-4.31 161.33-4.12 161.07-4.12L161.07-4.12 151.22-4.12 151.22-6.89 161.71-6.89 161.71-4.76Z" transform="translate(-2.809999942779541, 34.209999084472656)"></path></g> <!----> <!----> <!----> <!----> <!----> <!----> <!----></g></g> <g data-gra="path-slogan" fill-rule="" class="tp-slogan iconsvg-slogansvg" fill="#F74DD2" transform="translate(5,43.62999725341797)"><rect x="0" height="1" y="3.9750003814697266" width="13.720001220703125"></rect> <rect height="1" y="3.9750003814697266" width="13.720001220703125" x="140.83999633789062"></rect> <g transform="translate(16.720001220703125,0)"><g transform="scale(1)"><path d="M7.83-8.58L4.59-3.47L4.59 0L3.42 0L3.42-3.47L0.19-8.58L1.55-8.58L3.98-4.45L6.47-8.58L7.83-8.58ZM14.53-3.19L14.53-8.58L15.70-8.58L15.70-3.05Q15.56 0.05 12.19 0.14L12.19 0.14Q9.05 0.05 8.91-2.86L8.91-2.86L8.91-8.58L10.08-8.58L10.08-3.19Q10.13-0.84 12.23-0.80L12.23-0.80Q14.53-0.84 14.53-3.19L14.53-3.19ZM18.89-8.58L23.20-1.64L23.20-8.58L24.33-8.58L24.33 0L23.02 0L18.66-6.94L18.61-6.94L18.61 0L17.48 0L17.48-8.58L18.89-8.58ZM27.52-8.58L31.83-1.64L31.83-8.58L32.95-8.58L32.95 0L31.64 0L27.28-6.94L27.23-6.94L27.23 0L26.11 0L26.11-8.58L27.52-8.58ZM40.41 0L39.56-2.48L36.09-2.48L35.20 0L34.03 0L37.27-8.58L38.58-8.58L41.67 0L40.41 0ZM37.83-7.31L36.47-3.52L39.14-3.52L37.88-7.31L37.83-7.31ZM44.11-8.58L48.42-1.64L48.42-8.58L49.55-8.58L49.55 0L48.23 0L43.88-6.94L43.83-6.94L43.83 0L42.70 0L42.70-8.58L44.11-8.58ZM55.83-5.06L60.33-5.06L60.33-8.58L61.50-8.58L61.50 0L60.33 0L60.33-3.98L55.83-3.98L55.83 0L54.66 0L54.66-8.58L55.83-8.58L55.83-5.06ZM68.95 0L68.11-2.48L64.64-2.48L63.75 0L62.58 0L65.81-8.58L67.13-8.58L70.22 0L68.95 0ZM66.38-7.31L65.02-3.52L67.69-3.52L66.42-7.31L66.38-7.31ZM72.66-8.58L76.97-1.64L76.97-8.58L78.09-8.58L78.09 0L76.78 0L72.42-6.94L72.38-6.94L72.38 0L71.25 0L71.25-8.58L72.66-8.58ZM86.30-3.61L83.67-3.61L83.67-4.59L87.42-4.59L87.42 0L86.67 0L86.39-1.08Q85.41 0.09 83.58 0.14L83.58 0.14Q81.84 0.14 80.91-0.75L80.91-0.75Q79.50-2.06 79.55-4.36L79.55-4.36Q79.88-8.63 83.63-8.81L83.63-8.81Q86.81-8.63 87.28-6L87.28-6L86.16-6Q85.69-7.78 83.58-7.83L83.58-7.83Q80.91-7.64 80.77-4.31L80.77-4.31Q80.77-0.75 83.63-0.75L83.63-0.75Q84.66-0.75 85.41-1.31L85.41-1.31Q86.34-2.06 86.30-3.61L86.30-3.61ZM92.86-7.64L90.52-7.64L90.52-4.64L92.81-4.64Q94.59-4.64 94.59-6.19L94.59-6.19Q94.59-7.59 92.86-7.64L92.86-7.64ZM93.23-3.61L90.52-3.61L90.52 0L89.34 0L89.34-8.58L93.23-8.58Q95.67-8.48 95.77-6.19L95.77-6.19Q95.63-3.70 93.23-3.61L93.23-3.61ZM98.48-1.03L103.64-1.03L103.64 0L97.31 0L97.31-8.58L103.55-8.58L103.55-7.59L98.48-7.59L98.48-4.92L103.17-4.92L103.17-3.89L98.48-3.89L98.48-1.03ZM106.55-8.58L110.86-1.64L110.86-8.58L111.98-8.58L111.98 0L110.67 0L106.31-6.94L106.27-6.94L106.27 0L105.14 0L105.14-8.58L106.55-8.58ZM120.19-3.61L117.56-3.61L117.56-4.59L121.31-4.59L121.31 0L120.56 0L120.28-1.08Q119.30 0.09 117.47 0.14L117.47 0.14Q115.73 0.14 114.80-0.75L114.80-0.75Q113.39-2.06 113.44-4.36L113.44-4.36Q113.77-8.63 117.52-8.81L117.52-8.81Q120.70-8.63 121.17-6L121.17-6L120.05-6Q119.58-7.78 117.47-7.83L117.47-7.83Q114.80-7.64 114.66-4.31L114.66-4.31Q114.66-0.75 117.52-0.75L117.52-0.75Q118.55-0.75 119.30-1.31L119.30-1.31Q120.23-2.06 120.19-3.61L120.19-3.61Z" transform="translate(-0.1875, 8.8125)"></path></g></g></g></g></g><defs v-gra="od"></defs></svg>